<?xml version="1.0" encoding="UTF-8" standalone="no"?>
<!DOCTYPE svg PUBLIC "-//W3C//DTD SVG 1.1//EN"
 "http://www.w3.org/Graphics/SVG/1.1/DTD/svg11.dtd">
<!-- Generated by graphviz version 2.40.1 (20161225.0304)
 -->
<!-- Title: dependencies Pages: 1 -->
<svg width="504pt" height="396pt"
 viewBox="0.00 0.00 504.00 395.59" xmlns="http://www.w3.org/2000/svg" xmlns:xlink="http://www.w3.org/1999/xlink">
<g id="graph0" class="graph" transform="scale(1 1) rotate(0) translate(4 391.5901)">
<title>dependencies</title>
<polygon fill="#ffffff" stroke="transparent" points="-4,4 -4,-391.5901 500,-391.5901 500,4 -4,4"/>
<text text-anchor="start" x="227.0091" y="-42.4" font-family="sans-serif" font-weight="bold" font-size="14.00" fill="#000000">Legend</text>
<polygon fill="#ffffb3" stroke="transparent" points="14,-10 14,-30 34,-30 34,-10 14,-10"/>
<text text-anchor="start" x="37.629" y="-15.4" font-family="sans-serif" font-size="14.00" fill="#000000"> &#160;Declarations</text>
<polygon fill="#8dd3c7" stroke="transparent" points="127,-10 127,-30 147,-30 147,-10 127,-10"/>
<text text-anchor="start" x="150.7251" y="-15.4" font-family="sans-serif" font-size="14.00" fill="#000000"> &#160;Module</text>
<polygon fill="#80b1d3" stroke="transparent" points="213,-10 213,-30 233,-30 233,-10 213,-10"/>
<text text-anchor="start" x="236.7812" y="-15.4" font-family="sans-serif" font-size="14.00" fill="#000000"> &#160;Bootstrap</text>
<polygon fill="#fdb462" stroke="transparent" points="310,-10 310,-30 330,-30 330,-10 310,-10"/>
<text text-anchor="start" x="333.6732" y="-15.4" font-family="sans-serif" font-size="14.00" fill="#000000"> &#160;Providers</text>
<polygon fill="#fb8072" stroke="transparent" points="406,-10 406,-30 426,-30 426,-10 406,-10"/>
<text text-anchor="start" x="429.7258" y="-15.4" font-family="sans-serif" font-size="14.00" fill="#000000"> &#160;Exports</text>
<g id="clust1" class="cluster">
<title>cluster_UitRadioModule</title>
<polygon fill="none" stroke="#000000" stroke-dasharray="1,5" points="115.5,-70 115.5,-379.5901 380.5,-379.5901 380.5,-70 115.5,-70"/>
</g>
<g id="clust2" class="cluster">
<title>cluster_UitRadioModule_declarations</title>
<polygon fill="none" stroke="#000000" points="129.5,-189.5901 129.5,-241.5901 372.5,-241.5901 372.5,-189.5901 129.5,-189.5901"/>
</g>
<g id="clust3" class="cluster">
<title>cluster_UitRadioModule_UitRadioGroup_providers</title>
<polygon fill="none" stroke="#000000" points="123.5,-78 123.5,-176.5901 321.5,-176.5901 321.5,-78 123.5,-78"/>
</g>
<g id="clust6" class="cluster">
<title>cluster_UitRadioModule_exports</title>
<polygon fill="none" stroke="#000000" points="123.5,-319.5901 123.5,-371.5901 372.5,-371.5901 372.5,-319.5901 123.5,-319.5901"/>
</g>
<!-- UitRadioGroup -->
<g id="node1" class="node">
<title>UitRadioGroup</title>
<polygon fill="#ffffb3" stroke="#000000" points="364.0968,-233.5901 260.9032,-233.5901 260.9032,-197.5901 364.0968,-197.5901 364.0968,-233.5901"/>
<text text-anchor="middle" x="312.5" y="-211.3901" font-family="Times,serif" font-size="14.00" fill="#000000">UitRadioGroup</text>
</g>
<!-- UitRadioModule -->
<g id="node3" class="node">
<title>UitRadioModule</title>
<polygon fill="#8dd3c7" stroke="#000000" points="305.8795,-298.5901 302.8795,-302.5901 281.8795,-302.5901 278.8795,-298.5901 195.1205,-298.5901 195.1205,-262.5901 305.8795,-262.5901 305.8795,-298.5901"/>
<text text-anchor="middle" x="250.5" y="-276.3901" font-family="Times,serif" font-size="14.00" fill="#000000">UitRadioModule</text>
</g>
<!-- UitRadioGroup&#45;&gt;UitRadioModule -->
<g id="edge1" class="edge">
<title>UitRadioGroup&#45;&gt;UitRadioModule</title>
<path fill="none" stroke="#000000" d="M283.4457,-233.6962C283.4457,-233.6962 283.4457,-252.581 283.4457,-252.581"/>
<polygon fill="#000000" stroke="#000000" points="279.9457,-252.581 283.4457,-262.581 286.9457,-252.5811 279.9457,-252.581"/>
</g>
<!-- UitRadioButton -->
<g id="node2" class="node">
<title>UitRadioButton</title>
<polygon fill="#ffffb3" stroke="#000000" points="243.4484,-233.5901 137.5516,-233.5901 137.5516,-197.5901 243.4484,-197.5901 243.4484,-233.5901"/>
<text text-anchor="middle" x="190.5" y="-211.3901" font-family="Times,serif" font-size="14.00" fill="#000000">UitRadioButton</text>
</g>
<!-- UitRadioButton&#45;&gt;UitRadioModule -->
<g id="edge3" class="edge">
<title>UitRadioButton&#45;&gt;UitRadioModule</title>
<path fill="none" stroke="#000000" d="M219.142,-233.6962C219.142,-233.6962 219.142,-252.581 219.142,-252.581"/>
<polygon fill="#000000" stroke="#000000" points="215.6421,-252.581 219.142,-262.581 222.6421,-252.5811 215.6421,-252.581"/>
</g>
<!-- UitRadioGroup  -->
<g id="node5" class="node">
<title>UitRadioGroup </title>
<polygon fill="#fb8072" stroke="#000000" points="364.5976,-363.5901 258.4024,-363.5901 258.4024,-327.5901 364.5976,-327.5901 364.5976,-363.5901"/>
<text text-anchor="middle" x="311.5" y="-341.3901" font-family="Times,serif" font-size="14.00" fill="#000000">UitRadioGroup </text>
</g>
<!-- UitRadioModule&#45;&gt;UitRadioGroup  -->
<g id="edge6" class="edge">
<title>UitRadioModule&#45;&gt;UitRadioGroup </title>
<path fill="none" stroke="#000000" stroke-dasharray="5,2" d="M282.0707,-298.6962C282.0707,-298.6962 282.0707,-317.581 282.0707,-317.581"/>
<polygon fill="#000000" stroke="#000000" points="278.5707,-317.581 282.0707,-327.581 285.5707,-317.5811 278.5707,-317.581"/>
</g>
<!-- UitRadioButton  -->
<g id="node6" class="node">
<title>UitRadioButton </title>
<polygon fill="#fb8072" stroke="#000000" points="239.9474,-363.5901 131.0526,-363.5901 131.0526,-327.5901 239.9474,-327.5901 239.9474,-363.5901"/>
<text text-anchor="middle" x="185.5" y="-341.3901" font-family="Times,serif" font-size="14.00" fill="#000000">UitRadioButton </text>
</g>
<!-- UitRadioModule&#45;&gt;UitRadioButton  -->
<g id="edge7" class="edge">
<title>UitRadioModule&#45;&gt;UitRadioButton </title>
<path fill="none" stroke="#000000" stroke-dasharray="5,2" d="M217.517,-298.6962C217.517,-298.6962 217.517,-317.581 217.517,-317.581"/>
<polygon fill="#000000" stroke="#000000" points="214.0171,-317.581 217.517,-327.581 221.0171,-317.5811 214.0171,-317.581"/>
</g>
<!-- {
 &#160;&#160;&#160;: , : (() =&gt; ), : true
} -->
<g id="node4" class="node">
<title>{
 &#160;&#160;&#160;: , : (() =&gt; ), : true
}</title>
<ellipse fill="#fdb462" stroke="#000000" cx="222.5" cy="-127.295" rx="91.4557" ry="41.0911"/>
<text text-anchor="middle" x="222.5" y="-139.895" font-family="Times,serif" font-size="14.00" fill="#000000">{</text>
<text text-anchor="middle" x="222.5" y="-123.095" font-family="Times,serif" font-size="14.00" fill="#000000"> &#160;&#160;&#160;: , : (() =&gt; ), : true</text>
<text text-anchor="middle" x="222.5" y="-106.295" font-family="Times,serif" font-size="14.00" fill="#000000">}</text>
</g>
<!-- {
 &#160;&#160;&#160;: , : (() =&gt; ), : true
}&#45;&gt;UitRadioGroup -->
<g id="edge2" class="edge">
<title>{
 &#160;&#160;&#160;: , : (() =&gt; ), : true
}&#45;&gt;UitRadioGroup</title>
<path fill="none" stroke="#000000" d="M287.4647,-156.696C287.4647,-156.696 287.4647,-187.3723 287.4647,-187.3723"/>
<polygon fill="#000000" stroke="#000000" points="283.9648,-187.3722 287.4647,-197.3723 290.9648,-187.3723 283.9648,-187.3722"/>
</g>
<!-- {
 &#160;&#160;&#160;: , : (() =&gt; ), : true
}&#45;&gt;UitRadioButton -->
<g id="edge4" class="edge">
<title>{
 &#160;&#160;&#160;: , : (() =&gt; ), : true
}&#45;&gt;UitRadioButton</title>
<path fill="none" stroke="#000000" d="M172.9254,-162.1916C172.9254,-162.1916 172.9254,-187.1746 172.9254,-187.1746"/>
<polygon fill="#000000" stroke="#000000" points="169.4255,-187.1746 172.9254,-197.1746 176.4255,-187.1746 169.4255,-187.1746"/>
</g>
<!-- {
 &#160;&#160;&#160;: , : (() =&gt; ), : true
}&#45;&gt;UitRadioButton -->
<g id="edge5" class="edge">
<title>{
 &#160;&#160;&#160;: , : (() =&gt; ), : true
}&#45;&gt;UitRadioButton</title>
<path fill="none" stroke="#000000" d="M208.0746,-168.0826C208.0746,-168.0826 208.0746,-187.4641 208.0746,-187.4641"/>
<polygon fill="#000000" stroke="#000000" points="204.5747,-187.4641 208.0746,-197.4641 211.5747,-187.4642 204.5747,-187.4641"/>
</g>
</g>
</svg>
