<?xml version="1.0" encoding="UTF-8" standalone="no"?>
<!DOCTYPE svg PUBLIC "-//W3C//DTD SVG 1.1//EN"
 "http://www.w3.org/Graphics/SVG/1.1/DTD/svg11.dtd">
<!-- Generated by graphviz version 2.40.1 (20161225.0304)
 -->
<!-- Title: dependencies Pages: 1 -->
<svg width="504pt" height="396pt"
 viewBox="0.00 0.00 504.00 395.59" xmlns="http://www.w3.org/2000/svg" xmlns:xlink="http://www.w3.org/1999/xlink">
<g id="graph0" class="graph" transform="scale(1 1) rotate(0) translate(4 391.5901)">
<title>dependencies</title>
<polygon fill="#ffffff" stroke="transparent" points="-4,4 -4,-391.5901 500,-391.5901 500,4 -4,4"/>
<text text-anchor="start" x="227.0091" y="-42.4" font-family="sans-serif" font-weight="bold" font-size="14.00" fill="#000000">Legend</text>
<polygon fill="#ffffb3" stroke="transparent" points="14,-10 14,-30 34,-30 34,-10 14,-10"/>
<text text-anchor="start" x="37.629" y="-15.4" font-family="sans-serif" font-size="14.00" fill="#000000"> &#160;Declarations</text>
<polygon fill="#8dd3c7" stroke="transparent" points="127,-10 127,-30 147,-30 147,-10 127,-10"/>
<text text-anchor="start" x="150.7251" y="-15.4" font-family="sans-serif" font-size="14.00" fill="#000000"> &#160;Module</text>
<polygon fill="#80b1d3" stroke="transparent" points="213,-10 213,-30 233,-30 233,-10 213,-10"/>
<text text-anchor="start" x="236.7812" y="-15.4" font-family="sans-serif" font-size="14.00" fill="#000000"> &#160;Bootstrap</text>
<polygon fill="#fdb462" stroke="transparent" points="310,-10 310,-30 330,-30 330,-10 310,-10"/>
<text text-anchor="start" x="333.6732" y="-15.4" font-family="sans-serif" font-size="14.00" fill="#000000"> &#160;Providers</text>
<polygon fill="#fb8072" stroke="transparent" points="406,-10 406,-30 426,-30 426,-10 406,-10"/>
<text text-anchor="start" x="429.7258" y="-15.4" font-family="sans-serif" font-size="14.00" fill="#000000"> &#160;Exports</text>
<g id="clust1" class="cluster">
<title>cluster_UitTextboxModule</title>
<polygon fill="none" stroke="#000000" stroke-dasharray="1,5" points="122,-70 122,-379.5901 374,-379.5901 374,-70 122,-70"/>
</g>
<g id="clust2" class="cluster">
<title>cluster_UitTextboxModule_declarations</title>
<polygon fill="none" stroke="#000000" points="270,-189.5901 270,-241.5901 366,-241.5901 366,-189.5901 270,-189.5901"/>
</g>
<g id="clust3" class="cluster">
<title>cluster_UitTextboxModule_UitTextbox_providers</title>
<polygon fill="none" stroke="#000000" points="168,-78 168,-176.5901 366,-176.5901 366,-78 168,-78"/>
</g>
<g id="clust4" class="cluster">
<title>cluster_UitTextboxModule_imports</title>
<polygon fill="none" stroke="#000000" points="130,-189.5901 130,-241.5901 262,-241.5901 262,-189.5901 130,-189.5901"/>
</g>
<g id="clust5" class="cluster">
<title>cluster_UitTextboxModule_exports</title>
<polygon fill="none" stroke="#000000" points="200,-319.5901 200,-371.5901 300,-371.5901 300,-319.5901 200,-319.5901"/>
</g>
<!-- UitTextbox -->
<g id="node1" class="node">
<title>UitTextbox</title>
<polygon fill="#ffffb3" stroke="#000000" points="358.0469,-233.5901 277.9531,-233.5901 277.9531,-197.5901 358.0469,-197.5901 358.0469,-233.5901"/>
<text text-anchor="middle" x="318" y="-211.3901" font-family="Times,serif" font-size="14.00" fill="#000000">UitTextbox</text>
</g>
<!-- UitTextboxModule -->
<g id="node2" class="node">
<title>UitTextboxModule</title>
<polygon fill="#8dd3c7" stroke="#000000" points="312.0954,-298.5901 309.0954,-302.5901 288.0954,-302.5901 285.0954,-298.5901 187.9046,-298.5901 187.9046,-262.5901 312.0954,-262.5901 312.0954,-298.5901"/>
<text text-anchor="middle" x="250" y="-276.3901" font-family="Times,serif" font-size="14.00" fill="#000000">UitTextboxModule</text>
</g>
<!-- UitTextbox&#45;&gt;UitTextboxModule -->
<g id="edge1" class="edge">
<title>UitTextbox&#45;&gt;UitTextboxModule</title>
<path fill="none" stroke="#000000" d="M294.8875,-233.6962C294.8875,-233.6962 294.8875,-252.581 294.8875,-252.581"/>
<polygon fill="#000000" stroke="#000000" points="291.3875,-252.581 294.8875,-262.581 298.3875,-252.5811 291.3875,-252.581"/>
</g>
<!-- UitTextbox  -->
<g id="node5" class="node">
<title>UitTextbox </title>
<polygon fill="#fb8072" stroke="#000000" points="292.0456,-363.5901 207.9544,-363.5901 207.9544,-327.5901 292.0456,-327.5901 292.0456,-363.5901"/>
<text text-anchor="middle" x="250" y="-341.3901" font-family="Times,serif" font-size="14.00" fill="#000000">UitTextbox </text>
</g>
<!-- UitTextboxModule&#45;&gt;UitTextbox  -->
<g id="edge4" class="edge">
<title>UitTextboxModule&#45;&gt;UitTextbox </title>
<path fill="none" stroke="#000000" stroke-dasharray="5,2" d="M250,-298.6962C250,-298.6962 250,-317.581 250,-317.581"/>
<polygon fill="#000000" stroke="#000000" points="246.5001,-317.581 250,-327.581 253.5001,-317.5811 246.5001,-317.581"/>
</g>
<!-- {
 &#160;&#160;&#160;: , : (() =&gt; ), : true
} -->
<g id="node3" class="node">
<title>{
 &#160;&#160;&#160;: , : (() =&gt; ), : true
}</title>
<ellipse fill="#fdb462" stroke="#000000" cx="267" cy="-127.295" rx="91.4557" ry="41.0911"/>
<text text-anchor="middle" x="267" y="-139.895" font-family="Times,serif" font-size="14.00" fill="#000000">{</text>
<text text-anchor="middle" x="267" y="-123.095" font-family="Times,serif" font-size="14.00" fill="#000000"> &#160;&#160;&#160;: , : (() =&gt; ), : true</text>
<text text-anchor="middle" x="267" y="-106.295" font-family="Times,serif" font-size="14.00" fill="#000000">}</text>
</g>
<!-- {
 &#160;&#160;&#160;: , : (() =&gt; ), : true
}&#45;&gt;UitTextbox -->
<g id="edge2" class="edge">
<title>{
 &#160;&#160;&#160;: , : (() =&gt; ), : true
}&#45;&gt;UitTextbox</title>
<path fill="none" stroke="#000000" d="M318,-161.685C318,-161.685 318,-187.4458 318,-187.4458"/>
<polygon fill="#000000" stroke="#000000" points="314.5001,-187.4457 318,-197.4458 321.5001,-187.4458 314.5001,-187.4457"/>
</g>
<!-- UitButtonModule -->
<g id="node4" class="node">
<title>UitButtonModule</title>
<polygon fill="#8dd3c7" stroke="#000000" points="253.5563,-233.5901 250.5563,-237.5901 229.5563,-237.5901 226.5563,-233.5901 138.4437,-233.5901 138.4437,-197.5901 253.5563,-197.5901 253.5563,-233.5901"/>
<text text-anchor="middle" x="196" y="-211.3901" font-family="Times,serif" font-size="14.00" fill="#000000">UitButtonModule</text>
</g>
<!-- UitButtonModule&#45;&gt;UitTextboxModule -->
<g id="edge3" class="edge">
<title>UitButtonModule&#45;&gt;UitTextboxModule</title>
<path fill="none" stroke="#000000" d="M220.865,-233.6962C220.865,-233.6962 220.865,-252.581 220.865,-252.581"/>
<polygon fill="#000000" stroke="#000000" points="217.3651,-252.581 220.865,-262.581 224.3651,-252.5811 217.3651,-252.581"/>
</g>
</g>
</svg>
