<?xml version="1.0" encoding="UTF-8" standalone="no"?>
<!DOCTYPE svg PUBLIC "-//W3C//DTD SVG 1.1//EN"
 "http://www.w3.org/Graphics/SVG/1.1/DTD/svg11.dtd">
<!-- Generated by graphviz version 2.40.1 (20161225.0304)
 -->
<!-- Title: dependencies Pages: 1 -->
<svg width="504pt" height="396pt"
 viewBox="0.00 0.00 504.00 395.59" xmlns="http://www.w3.org/2000/svg" xmlns:xlink="http://www.w3.org/1999/xlink">
<g id="graph0" class="graph" transform="scale(1 1) rotate(0) translate(4 391.5901)">
<title>dependencies</title>
<polygon fill="#ffffff" stroke="transparent" points="-4,4 -4,-391.5901 500,-391.5901 500,4 -4,4"/>
<text text-anchor="start" x="227.0091" y="-42.4" font-family="sans-serif" font-weight="bold" font-size="14.00" fill="#000000">Legend</text>
<polygon fill="#ffffb3" stroke="transparent" points="14,-10 14,-30 34,-30 34,-10 14,-10"/>
<text text-anchor="start" x="37.629" y="-15.4" font-family="sans-serif" font-size="14.00" fill="#000000"> &#160;Declarations</text>
<polygon fill="#8dd3c7" stroke="transparent" points="127,-10 127,-30 147,-30 147,-10 127,-10"/>
<text text-anchor="start" x="150.7251" y="-15.4" font-family="sans-serif" font-size="14.00" fill="#000000"> &#160;Module</text>
<polygon fill="#80b1d3" stroke="transparent" points="213,-10 213,-30 233,-30 233,-10 213,-10"/>
<text text-anchor="start" x="236.7812" y="-15.4" font-family="sans-serif" font-size="14.00" fill="#000000"> &#160;Bootstrap</text>
<polygon fill="#fdb462" stroke="transparent" points="310,-10 310,-30 330,-30 330,-10 310,-10"/>
<text text-anchor="start" x="333.6732" y="-15.4" font-family="sans-serif" font-size="14.00" fill="#000000"> &#160;Providers</text>
<polygon fill="#fb8072" stroke="transparent" points="406,-10 406,-30 426,-30 426,-10 406,-10"/>
<text text-anchor="start" x="429.7258" y="-15.4" font-family="sans-serif" font-size="14.00" fill="#000000"> &#160;Exports</text>
<g id="clust1" class="cluster">
<title>cluster_UitTreeModule</title>
<polygon fill="none" stroke="#000000" stroke-dasharray="1,5" points="116.5,-70 116.5,-379.5901 379.5,-379.5901 379.5,-70 116.5,-70"/>
</g>
<g id="clust2" class="cluster">
<title>cluster_UitTreeModule_declarations</title>
<polygon fill="none" stroke="#000000" points="124.5,-189.5901 124.5,-241.5901 364.5,-241.5901 364.5,-189.5901 124.5,-189.5901"/>
</g>
<g id="clust3" class="cluster">
<title>cluster_UitTreeModule_UitTreeViewItem_providers</title>
<polygon fill="none" stroke="#000000" points="173.5,-78 173.5,-176.5901 371.5,-176.5901 371.5,-78 173.5,-78"/>
</g>
<g id="clust6" class="cluster">
<title>cluster_UitTreeModule_exports</title>
<polygon fill="none" stroke="#000000" points="124.5,-319.5901 124.5,-371.5901 371.5,-371.5901 371.5,-319.5901 124.5,-319.5901"/>
</g>
<!-- UitTreeViewItem -->
<g id="node1" class="node">
<title>UitTreeViewItem</title>
<polygon fill="#ffffb3" stroke="#000000" points="356.0061,-233.5901 240.9939,-233.5901 240.9939,-197.5901 356.0061,-197.5901 356.0061,-233.5901"/>
<text text-anchor="middle" x="298.5" y="-211.3901" font-family="Times,serif" font-size="14.00" fill="#000000">UitTreeViewItem</text>
</g>
<!-- UitTreeModule -->
<g id="node3" class="node">
<title>UitTreeModule</title>
<polygon fill="#8dd3c7" stroke="#000000" points="290.08,-298.5901 287.08,-302.5901 266.08,-302.5901 263.08,-298.5901 186.92,-298.5901 186.92,-262.5901 290.08,-262.5901 290.08,-298.5901"/>
<text text-anchor="middle" x="238.5" y="-276.3901" font-family="Times,serif" font-size="14.00" fill="#000000">UitTreeModule</text>
</g>
<!-- UitTreeViewItem&#45;&gt;UitTreeModule -->
<g id="edge1" class="edge">
<title>UitTreeViewItem&#45;&gt;UitTreeModule</title>
<path fill="none" stroke="#000000" d="M265.3938,-233.6962C265.3938,-233.6962 265.3938,-252.581 265.3938,-252.581"/>
<polygon fill="#000000" stroke="#000000" points="261.8938,-252.581 265.3938,-262.581 268.8938,-252.5811 261.8938,-252.581"/>
</g>
<!-- UitTreeView -->
<g id="node2" class="node">
<title>UitTreeView</title>
<polygon fill="#ffffb3" stroke="#000000" points="222.3487,-233.5901 132.6513,-233.5901 132.6513,-197.5901 222.3487,-197.5901 222.3487,-233.5901"/>
<text text-anchor="middle" x="177.5" y="-211.3901" font-family="Times,serif" font-size="14.00" fill="#000000">UitTreeView</text>
</g>
<!-- UitTreeView&#45;&gt;UitTreeModule -->
<g id="edge4" class="edge">
<title>UitTreeView&#45;&gt;UitTreeModule</title>
<path fill="none" stroke="#000000" d="M204.6922,-233.6962C204.6922,-233.6962 204.6922,-252.581 204.6922,-252.581"/>
<polygon fill="#000000" stroke="#000000" points="201.1922,-252.581 204.6922,-262.581 208.1922,-252.5811 201.1922,-252.581"/>
</g>
<!-- UitTreeViewItem  -->
<g id="node5" class="node">
<title>UitTreeViewItem </title>
<polygon fill="#fb8072" stroke="#000000" points="363.005,-363.5901 243.995,-363.5901 243.995,-327.5901 363.005,-327.5901 363.005,-363.5901"/>
<text text-anchor="middle" x="303.5" y="-341.3901" font-family="Times,serif" font-size="14.00" fill="#000000">UitTreeViewItem </text>
</g>
<!-- UitTreeModule&#45;&gt;UitTreeViewItem  -->
<g id="edge6" class="edge">
<title>UitTreeModule&#45;&gt;UitTreeViewItem </title>
<path fill="none" stroke="#000000" stroke-dasharray="5,2" d="M267.0188,-298.6962C267.0188,-298.6962 267.0188,-317.581 267.0188,-317.581"/>
<polygon fill="#000000" stroke="#000000" points="263.5188,-317.581 267.0188,-327.581 270.5188,-317.5811 263.5188,-317.581"/>
</g>
<!-- UitTreeView  -->
<g id="node6" class="node">
<title>UitTreeView </title>
<polygon fill="#fb8072" stroke="#000000" points="226.3493,-363.5901 132.6507,-363.5901 132.6507,-327.5901 226.3493,-327.5901 226.3493,-363.5901"/>
<text text-anchor="middle" x="179.5" y="-341.3901" font-family="Times,serif" font-size="14.00" fill="#000000">UitTreeView </text>
</g>
<!-- UitTreeModule&#45;&gt;UitTreeView  -->
<g id="edge7" class="edge">
<title>UitTreeModule&#45;&gt;UitTreeView </title>
<path fill="none" stroke="#000000" stroke-dasharray="5,2" d="M206.5672,-298.6962C206.5672,-298.6962 206.5672,-317.581 206.5672,-317.581"/>
<polygon fill="#000000" stroke="#000000" points="203.0672,-317.581 206.5672,-327.581 210.0672,-317.5811 203.0672,-317.581"/>
</g>
<!-- {
 &#160;&#160;&#160;: , : (() =&gt; ), : true
} -->
<g id="node4" class="node">
<title>{
 &#160;&#160;&#160;: , : (() =&gt; ), : true
}</title>
<ellipse fill="#fdb462" stroke="#000000" cx="272.5" cy="-127.295" rx="91.4557" ry="41.0911"/>
<text text-anchor="middle" x="272.5" y="-139.895" font-family="Times,serif" font-size="14.00" fill="#000000">{</text>
<text text-anchor="middle" x="272.5" y="-123.095" font-family="Times,serif" font-size="14.00" fill="#000000"> &#160;&#160;&#160;: , : (() =&gt; ), : true</text>
<text text-anchor="middle" x="272.5" y="-106.295" font-family="Times,serif" font-size="14.00" fill="#000000">}</text>
</g>
<!-- {
 &#160;&#160;&#160;: , : (() =&gt; ), : true
}&#45;&gt;UitTreeViewItem -->
<g id="edge2" class="edge">
<title>{
 &#160;&#160;&#160;: , : (() =&gt; ), : true
}&#45;&gt;UitTreeViewItem</title>
<path fill="none" stroke="#000000" d="M279.2492,-168.5989C279.2492,-168.5989 279.2492,-187.2551 279.2492,-187.2551"/>
<polygon fill="#000000" stroke="#000000" points="275.7493,-187.255 279.2492,-197.2551 282.7493,-187.2551 275.7493,-187.255"/>
</g>
<!-- {
 &#160;&#160;&#160;: , : (() =&gt; ), : true
}&#45;&gt;UitTreeViewItem -->
<g id="edge3" class="edge">
<title>{
 &#160;&#160;&#160;: , : (() =&gt; ), : true
}&#45;&gt;UitTreeViewItem</title>
<path fill="none" stroke="#000000" d="M317.7508,-163.208C317.7508,-163.208 317.7508,-187.1343 317.7508,-187.1343"/>
<polygon fill="#000000" stroke="#000000" points="314.2509,-187.1343 317.7508,-197.1343 321.2509,-187.1343 314.2509,-187.1343"/>
</g>
<!-- {
 &#160;&#160;&#160;: , : (() =&gt; ), : true
}&#45;&gt;UitTreeView -->
<g id="edge5" class="edge">
<title>{
 &#160;&#160;&#160;: , : (() =&gt; ), : true
}&#45;&gt;UitTreeView</title>
<path fill="none" stroke="#000000" d="M201.7232,-153.7865C201.7232,-153.7865 201.7232,-187.5109 201.7232,-187.5109"/>
<polygon fill="#000000" stroke="#000000" points="198.2233,-187.5108 201.7232,-197.5109 205.2233,-187.5109 198.2233,-187.5108"/>
</g>
</g>
</svg>
