<?xml version="1.0" encoding="UTF-8" standalone="no"?>
<!DOCTYPE svg PUBLIC "-//W3C//DTD SVG 1.1//EN"
 "http://www.w3.org/Graphics/SVG/1.1/DTD/svg11.dtd">
<!-- Generated by graphviz version 2.40.1 (20161225.0304)
 -->
<!-- Title: dependencies Pages: 1 -->
<svg width="504pt" height="211pt"
 viewBox="0.00 0.00 504.00 211.00" xmlns="http://www.w3.org/2000/svg" xmlns:xlink="http://www.w3.org/1999/xlink">
<g id="graph0" class="graph" transform="scale(1 1) rotate(0) translate(4 207)">
<title>dependencies</title>
<polygon fill="#ffffff" stroke="transparent" points="-4,4 -4,-207 500,-207 500,4 -4,4"/>
<text text-anchor="start" x="227.0091" y="-42.4" font-family="sans-serif" font-weight="bold" font-size="14.00" fill="#000000">Legend</text>
<polygon fill="#ffffb3" stroke="transparent" points="14,-10 14,-30 34,-30 34,-10 14,-10"/>
<text text-anchor="start" x="37.629" y="-15.4" font-family="sans-serif" font-size="14.00" fill="#000000"> &#160;Declarations</text>
<polygon fill="#8dd3c7" stroke="transparent" points="127,-10 127,-30 147,-30 147,-10 127,-10"/>
<text text-anchor="start" x="150.7251" y="-15.4" font-family="sans-serif" font-size="14.00" fill="#000000"> &#160;Module</text>
<polygon fill="#80b1d3" stroke="transparent" points="213,-10 213,-30 233,-30 233,-10 213,-10"/>
<text text-anchor="start" x="236.7812" y="-15.4" font-family="sans-serif" font-size="14.00" fill="#000000"> &#160;Bootstrap</text>
<polygon fill="#fdb462" stroke="transparent" points="310,-10 310,-30 330,-30 330,-10 310,-10"/>
<text text-anchor="start" x="333.6732" y="-15.4" font-family="sans-serif" font-size="14.00" fill="#000000"> &#160;Providers</text>
<polygon fill="#fb8072" stroke="transparent" points="406,-10 406,-30 426,-30 426,-10 406,-10"/>
<text text-anchor="start" x="429.7258" y="-15.4" font-family="sans-serif" font-size="14.00" fill="#000000"> &#160;Exports</text>
<g id="clust1" class="cluster">
<title>cluster_UitModule</title>
<polygon fill="none" stroke="#000000" stroke-dasharray="1,5" points="52,-70 52,-195 444,-195 444,-70 52,-70"/>
</g>
<g id="clust4" class="cluster">
<title>cluster_UitModule_exports</title>
<polygon fill="none" stroke="#000000" points="60,-135 60,-187 436,-187 436,-135 60,-135"/>
</g>
<!-- UitRadioModule  -->
<g id="node1" class="node">
<title>UitRadioModule </title>
<polygon fill="#fb8072" stroke="#000000" points="428.38,-179 313.62,-179 313.62,-143 428.38,-143 428.38,-179"/>
<text text-anchor="middle" x="371" y="-156.8" font-family="Times,serif" font-size="14.00" fill="#000000">UitRadioModule </text>
</g>
<!-- UitListModule  -->
<g id="node2" class="node">
<title>UitListModule </title>
<polygon fill="#fb8072" stroke="#000000" points="295.2164,-179 192.7836,-179 192.7836,-143 295.2164,-143 295.2164,-179"/>
<text text-anchor="middle" x="244" y="-156.8" font-family="Times,serif" font-size="14.00" fill="#000000">UitListModule </text>
</g>
<!-- UitTreeModule  -->
<g id="node3" class="node">
<title>UitTreeModule </title>
<polygon fill="#fb8072" stroke="#000000" points="174.0808,-179 67.9192,-179 67.9192,-143 174.0808,-143 174.0808,-179"/>
<text text-anchor="middle" x="121" y="-156.8" font-family="Times,serif" font-size="14.00" fill="#000000">UitTreeModule </text>
</g>
<!-- UitModule -->
<g id="node4" class="node">
<title>UitModule</title>
<polygon fill="#8dd3c7" stroke="#000000" points="282.9388,-114 279.9388,-118 258.9388,-118 255.9388,-114 205.0612,-114 205.0612,-78 282.9388,-78 282.9388,-114"/>
<text text-anchor="middle" x="244" y="-91.8" font-family="Times,serif" font-size="14.00" fill="#000000">UitModule</text>
</g>
<!-- UitModule&#45;&gt;UitRadioModule  -->
<g id="edge1" class="edge">
<title>UitModule&#45;&gt;UitRadioModule </title>
<path fill="none" stroke="#000000" stroke-dasharray="5,2" d="M282.7943,-96C320.1426,-96 371,-96 371,-96 371,-96 371,-132.8939 371,-132.8939"/>
<polygon fill="#000000" stroke="#000000" points="367.5001,-132.8938 371,-142.8939 374.5001,-132.8939 367.5001,-132.8938"/>
</g>
<!-- UitModule&#45;&gt;UitListModule  -->
<g id="edge2" class="edge">
<title>UitModule&#45;&gt;UitListModule </title>
<path fill="none" stroke="#000000" stroke-dasharray="5,2" d="M244,-114.1061C244,-114.1061 244,-132.991 244,-132.991"/>
<polygon fill="#000000" stroke="#000000" points="240.5001,-132.9909 244,-142.991 247.5001,-132.991 240.5001,-132.9909"/>
</g>
<!-- UitModule&#45;&gt;UitTreeModule  -->
<g id="edge3" class="edge">
<title>UitModule&#45;&gt;UitTreeModule </title>
<path fill="none" stroke="#000000" stroke-dasharray="5,2" d="M205.082,-96C169.0469,-96 121,-96 121,-96 121,-96 121,-132.8939 121,-132.8939"/>
<polygon fill="#000000" stroke="#000000" points="117.5001,-132.8938 121,-142.8939 124.5001,-132.8939 117.5001,-132.8938"/>
</g>
</g>
</svg>
