<?xml version="1.0" encoding="UTF-8" standalone="no"?>
<!DOCTYPE svg PUBLIC "-//W3C//DTD SVG 1.1//EN"
 "http://www.w3.org/Graphics/SVG/1.1/DTD/svg11.dtd">
<!-- Generated by graphviz version 2.40.1 (20161225.0304)
 -->
<!-- Title: dependencies Pages: 1 -->
<svg width="504pt" height="396pt"
 viewBox="0.00 0.00 504.00 395.59" xmlns="http://www.w3.org/2000/svg" xmlns:xlink="http://www.w3.org/1999/xlink">
<g id="graph0" class="graph" transform="scale(1 1) rotate(0) translate(4 391.5901)">
<title>dependencies</title>
<polygon fill="#ffffff" stroke="transparent" points="-4,4 -4,-391.5901 500,-391.5901 500,4 -4,4"/>
<text text-anchor="start" x="227.0091" y="-42.4" font-family="sans-serif" font-weight="bold" font-size="14.00" fill="#000000">Legend</text>
<polygon fill="#ffffb3" stroke="transparent" points="14,-10 14,-30 34,-30 34,-10 14,-10"/>
<text text-anchor="start" x="37.629" y="-15.4" font-family="sans-serif" font-size="14.00" fill="#000000"> &#160;Declarations</text>
<polygon fill="#8dd3c7" stroke="transparent" points="127,-10 127,-30 147,-30 147,-10 127,-10"/>
<text text-anchor="start" x="150.7251" y="-15.4" font-family="sans-serif" font-size="14.00" fill="#000000"> &#160;Module</text>
<polygon fill="#80b1d3" stroke="transparent" points="213,-10 213,-30 233,-30 233,-10 213,-10"/>
<text text-anchor="start" x="236.7812" y="-15.4" font-family="sans-serif" font-size="14.00" fill="#000000"> &#160;Bootstrap</text>
<polygon fill="#fdb462" stroke="transparent" points="310,-10 310,-30 330,-30 330,-10 310,-10"/>
<text text-anchor="start" x="333.6732" y="-15.4" font-family="sans-serif" font-size="14.00" fill="#000000"> &#160;Providers</text>
<polygon fill="#fb8072" stroke="transparent" points="406,-10 406,-30 426,-30 426,-10 406,-10"/>
<text text-anchor="start" x="429.7258" y="-15.4" font-family="sans-serif" font-size="14.00" fill="#000000"> &#160;Exports</text>
<g id="clust1" class="cluster">
<title>cluster_UitNavigationModule</title>
<polygon fill="none" stroke="#000000" stroke-dasharray="1,5" points="110.5,-70 110.5,-379.5901 385.5,-379.5901 385.5,-70 110.5,-70"/>
</g>
<g id="clust2" class="cluster">
<title>cluster_UitNavigationModule_declarations</title>
<polygon fill="none" stroke="#000000" points="118.5,-189.5901 118.5,-241.5901 370.5,-241.5901 370.5,-189.5901 118.5,-189.5901"/>
</g>
<g id="clust3" class="cluster">
<title>cluster_UitNavigationModule_UitNavigationItem_providers</title>
<polygon fill="none" stroke="#000000" points="179.5,-78 179.5,-176.5901 377.5,-176.5901 377.5,-78 179.5,-78"/>
</g>
<g id="clust6" class="cluster">
<title>cluster_UitNavigationModule_exports</title>
<polygon fill="none" stroke="#000000" points="118.5,-319.5901 118.5,-371.5901 377.5,-371.5901 377.5,-319.5901 118.5,-319.5901"/>
</g>
<!-- UitNavigationItem -->
<g id="node1" class="node">
<title>UitNavigationItem</title>
<polygon fill="#ffffb3" stroke="#000000" points="362.2521,-233.5901 240.7479,-233.5901 240.7479,-197.5901 362.2521,-197.5901 362.2521,-233.5901"/>
<text text-anchor="middle" x="301.5" y="-211.3901" font-family="Times,serif" font-size="14.00" fill="#000000">UitNavigationItem</text>
</g>
<!-- UitNavigationModule -->
<g id="node3" class="node">
<title>UitNavigationModule</title>
<polygon fill="#8dd3c7" stroke="#000000" points="314.1456,-298.5901 311.1456,-302.5901 290.1456,-302.5901 287.1456,-298.5901 174.8544,-298.5901 174.8544,-262.5901 314.1456,-262.5901 314.1456,-298.5901"/>
<text text-anchor="middle" x="244.5" y="-276.3901" font-family="Times,serif" font-size="14.00" fill="#000000">UitNavigationModule</text>
</g>
<!-- UitNavigationItem&#45;&gt;UitNavigationModule -->
<g id="edge1" class="edge">
<title>UitNavigationItem&#45;&gt;UitNavigationModule</title>
<path fill="none" stroke="#000000" d="M277.4734,-233.6962C277.4734,-233.6962 277.4734,-252.581 277.4734,-252.581"/>
<polygon fill="#000000" stroke="#000000" points="273.9734,-252.581 277.4734,-262.581 280.9734,-252.5811 273.9734,-252.581"/>
</g>
<!-- UitNavigation -->
<g id="node2" class="node">
<title>UitNavigation</title>
<polygon fill="#ffffb3" stroke="#000000" points="222.5954,-233.5901 126.4046,-233.5901 126.4046,-197.5901 222.5954,-197.5901 222.5954,-233.5901"/>
<text text-anchor="middle" x="174.5" y="-211.3901" font-family="Times,serif" font-size="14.00" fill="#000000">UitNavigation</text>
</g>
<!-- UitNavigation&#45;&gt;UitNavigationModule -->
<g id="edge4" class="edge">
<title>UitNavigation&#45;&gt;UitNavigationModule</title>
<path fill="none" stroke="#000000" d="M198.6126,-233.6962C198.6126,-233.6962 198.6126,-252.581 198.6126,-252.581"/>
<polygon fill="#000000" stroke="#000000" points="195.1126,-252.581 198.6126,-262.581 202.1126,-252.5811 195.1126,-252.581"/>
</g>
<!-- UitNavigationItem  -->
<g id="node5" class="node">
<title>UitNavigationItem </title>
<polygon fill="#fb8072" stroke="#000000" points="369.2521,-363.5901 243.7479,-363.5901 243.7479,-327.5901 369.2521,-327.5901 369.2521,-363.5901"/>
<text text-anchor="middle" x="306.5" y="-341.3901" font-family="Times,serif" font-size="14.00" fill="#000000">UitNavigationItem </text>
</g>
<!-- UitNavigationModule&#45;&gt;UitNavigationItem  -->
<g id="edge6" class="edge">
<title>UitNavigationModule&#45;&gt;UitNavigationItem </title>
<path fill="none" stroke="#000000" stroke-dasharray="5,2" d="M279.0984,-298.6962C279.0984,-298.6962 279.0984,-317.581 279.0984,-317.581"/>
<polygon fill="#000000" stroke="#000000" points="275.5984,-317.581 279.0984,-327.581 282.5984,-317.5811 275.5984,-317.581"/>
</g>
<!-- UitNavigation  -->
<g id="node6" class="node">
<title>UitNavigation </title>
<polygon fill="#fb8072" stroke="#000000" points="226.0962,-363.5901 126.9038,-363.5901 126.9038,-327.5901 226.0962,-327.5901 226.0962,-363.5901"/>
<text text-anchor="middle" x="176.5" y="-341.3901" font-family="Times,serif" font-size="14.00" fill="#000000">UitNavigation </text>
</g>
<!-- UitNavigationModule&#45;&gt;UitNavigation  -->
<g id="edge7" class="edge">
<title>UitNavigationModule&#45;&gt;UitNavigation </title>
<path fill="none" stroke="#000000" stroke-dasharray="5,2" d="M200.4876,-298.6962C200.4876,-298.6962 200.4876,-317.581 200.4876,-317.581"/>
<polygon fill="#000000" stroke="#000000" points="196.9876,-317.581 200.4876,-327.581 203.9876,-317.5811 196.9876,-317.581"/>
</g>
<!-- {
 &#160;&#160;&#160;: , : (() =&gt; ), : true
} -->
<g id="node4" class="node">
<title>{
 &#160;&#160;&#160;: , : (() =&gt; ), : true
}</title>
<ellipse fill="#fdb462" stroke="#000000" cx="278.5" cy="-127.295" rx="91.4557" ry="41.0911"/>
<text text-anchor="middle" x="278.5" y="-139.895" font-family="Times,serif" font-size="14.00" fill="#000000">{</text>
<text text-anchor="middle" x="278.5" y="-123.095" font-family="Times,serif" font-size="14.00" fill="#000000"> &#160;&#160;&#160;: , : (() =&gt; ), : true</text>
<text text-anchor="middle" x="278.5" y="-106.295" font-family="Times,serif" font-size="14.00" fill="#000000">}</text>
</g>
<!-- {
 &#160;&#160;&#160;: , : (() =&gt; ), : true
}&#45;&gt;UitNavigationItem -->
<g id="edge2" class="edge">
<title>{
 &#160;&#160;&#160;: , : (() =&gt; ), : true
}&#45;&gt;UitNavigationItem</title>
<path fill="none" stroke="#000000" d="M281.208,-168.5989C281.208,-168.5989 281.208,-187.2551 281.208,-187.2551"/>
<polygon fill="#000000" stroke="#000000" points="277.7081,-187.255 281.208,-197.2551 284.7081,-187.2551 277.7081,-187.255"/>
</g>
<!-- {
 &#160;&#160;&#160;: , : (() =&gt; ), : true
}&#45;&gt;UitNavigationItem -->
<g id="edge3" class="edge">
<title>{
 &#160;&#160;&#160;: , : (() =&gt; ), : true
}&#45;&gt;UitNavigationItem</title>
<path fill="none" stroke="#000000" d="M321.792,-163.7178C321.792,-163.7178 321.792,-187.3589 321.792,-187.3589"/>
<polygon fill="#000000" stroke="#000000" points="318.2921,-187.3588 321.792,-197.3589 325.2921,-187.3589 318.2921,-187.3588"/>
</g>
<!-- {
 &#160;&#160;&#160;: , : (() =&gt; ), : true
}&#45;&gt;UitNavigation -->
<g id="edge5" class="edge">
<title>{
 &#160;&#160;&#160;: , : (() =&gt; ), : true
}&#45;&gt;UitNavigation</title>
<path fill="none" stroke="#000000" d="M204.7849,-151.8901C204.7849,-151.8901 204.7849,-187.5659 204.7849,-187.5659"/>
<polygon fill="#000000" stroke="#000000" points="201.285,-187.5658 204.7849,-197.5659 208.285,-187.5659 201.285,-187.5658"/>
</g>
</g>
</svg>
