<?xml version="1.0" encoding="UTF-8" standalone="no"?>
<!DOCTYPE svg PUBLIC "-//W3C//DTD SVG 1.1//EN"
 "http://www.w3.org/Graphics/SVG/1.1/DTD/svg11.dtd">
<!-- Generated by graphviz version 2.40.1 (20161225.0304)
 -->
<!-- Title: dependencies Pages: 1 -->
<svg width="724pt" height="396pt"
 viewBox="0.00 0.00 724.00 395.59" xmlns="http://www.w3.org/2000/svg" xmlns:xlink="http://www.w3.org/1999/xlink">
<g id="graph0" class="graph" transform="scale(1 1) rotate(0) translate(4 391.5901)">
<title>dependencies</title>
<polygon fill="#ffffff" stroke="transparent" points="-4,4 -4,-391.5901 720,-391.5901 720,4 -4,4"/>
<text text-anchor="start" x="337.0091" y="-42.4" font-family="sans-serif" font-weight="bold" font-size="14.00" fill="#000000">Legend</text>
<polygon fill="#ffffb3" stroke="transparent" points="124,-10 124,-30 144,-30 144,-10 124,-10"/>
<text text-anchor="start" x="147.629" y="-15.4" font-family="sans-serif" font-size="14.00" fill="#000000"> &#160;Declarations</text>
<polygon fill="#8dd3c7" stroke="transparent" points="237,-10 237,-30 257,-30 257,-10 237,-10"/>
<text text-anchor="start" x="260.7251" y="-15.4" font-family="sans-serif" font-size="14.00" fill="#000000"> &#160;Module</text>
<polygon fill="#80b1d3" stroke="transparent" points="323,-10 323,-30 343,-30 343,-10 323,-10"/>
<text text-anchor="start" x="346.7812" y="-15.4" font-family="sans-serif" font-size="14.00" fill="#000000"> &#160;Bootstrap</text>
<polygon fill="#fdb462" stroke="transparent" points="420,-10 420,-30 440,-30 440,-10 420,-10"/>
<text text-anchor="start" x="443.6732" y="-15.4" font-family="sans-serif" font-size="14.00" fill="#000000"> &#160;Providers</text>
<polygon fill="#fb8072" stroke="transparent" points="516,-10 516,-30 536,-30 536,-10 516,-10"/>
<text text-anchor="start" x="539.7258" y="-15.4" font-family="sans-serif" font-size="14.00" fill="#000000"> &#160;Exports</text>
<g id="clust1" class="cluster">
<title>cluster_UitListModule</title>
<polygon fill="none" stroke="#000000" stroke-dasharray="1,5" points="8,-70 8,-379.5901 708,-379.5901 708,-70 8,-70"/>
</g>
<g id="clust2" class="cluster">
<title>cluster_UitListModule_declarations</title>
<polygon fill="none" stroke="#000000" points="16,-189.5901 16,-241.5901 700,-241.5901 700,-189.5901 16,-189.5901"/>
</g>
<g id="clust6" class="cluster">
<title>cluster_UitListModule_UitListBoxItem_providers</title>
<polygon fill="none" stroke="#000000" points="75,-78 75,-176.5901 273,-176.5901 273,-78 75,-78"/>
</g>
<g id="clust9" class="cluster">
<title>cluster_UitListModule_exports</title>
<polygon fill="none" stroke="#000000" points="165,-319.5901 165,-371.5901 575,-371.5901 575,-319.5901 165,-319.5901"/>
</g>
<!-- UitScrollBarDirective -->
<g id="node1" class="node">
<title>UitScrollBarDirective</title>
<polygon fill="#ffffb3" stroke="#000000" points="691.6219,-233.5901 552.3781,-233.5901 552.3781,-197.5901 691.6219,-197.5901 691.6219,-233.5901"/>
<text text-anchor="middle" x="622" y="-211.3901" font-family="Times,serif" font-size="14.00" fill="#000000">UitScrollBarDirective</text>
</g>
<!-- UitListModule -->
<g id="node6" class="node">
<title>UitListModule</title>
<polygon fill="#8dd3c7" stroke="#000000" points="376.7162,-298.5901 373.7162,-302.5901 352.7162,-302.5901 349.7162,-298.5901 277.2838,-298.5901 277.2838,-262.5901 376.7162,-262.5901 376.7162,-298.5901"/>
<text text-anchor="middle" x="327" y="-276.3901" font-family="Times,serif" font-size="14.00" fill="#000000">UitListModule</text>
</g>
<!-- UitScrollBarDirective&#45;&gt;UitListModule -->
<g id="edge1" class="edge">
<title>UitScrollBarDirective&#45;&gt;UitListModule</title>
<path fill="none" stroke="#000000" d="M559.5935,-233.6962C559.5935,-252.9292 559.5935,-280.5901 559.5935,-280.5901 559.5935,-280.5901 386.6118,-280.5901 386.6118,-280.5901"/>
<polygon fill="#000000" stroke="#000000" points="386.6119,-277.0902 376.6118,-280.5901 386.6118,-284.0902 386.6119,-277.0902"/>
</g>
<!-- UitVirtualScroll -->
<g id="node2" class="node">
<title>UitVirtualScroll</title>
<polygon fill="#ffffb3" stroke="#000000" points="534.4804,-233.5901 427.5196,-233.5901 427.5196,-197.5901 534.4804,-197.5901 534.4804,-233.5901"/>
<text text-anchor="middle" x="481" y="-211.3901" font-family="Times,serif" font-size="14.00" fill="#000000">UitVirtualScroll</text>
</g>
<!-- UitVirtualScroll&#45;&gt;UitListModule -->
<g id="edge2" class="edge">
<title>UitVirtualScroll&#45;&gt;UitListModule</title>
<path fill="none" stroke="#000000" d="M481,-233.6171C481,-249.9877 481,-271.5901 481,-271.5901 481,-271.5901 386.9994,-271.5901 386.9994,-271.5901"/>
<polygon fill="#000000" stroke="#000000" points="386.9994,-268.0902 376.9994,-271.5901 386.9994,-275.0902 386.9994,-268.0902"/>
</g>
<!-- UitItemTemplateDirective -->
<g id="node3" class="node">
<title>UitItemTemplateDirective</title>
<polygon fill="#ffffb3" stroke="#000000" points="409.4959,-233.5901 244.5041,-233.5901 244.5041,-197.5901 409.4959,-197.5901 409.4959,-233.5901"/>
<text text-anchor="middle" x="327" y="-211.3901" font-family="Times,serif" font-size="14.00" fill="#000000">UitItemTemplateDirective</text>
</g>
<!-- UitItemTemplateDirective&#45;&gt;UitListModule -->
<g id="edge3" class="edge">
<title>UitItemTemplateDirective&#45;&gt;UitListModule</title>
<path fill="none" stroke="#000000" d="M327,-233.6962C327,-233.6962 327,-252.581 327,-252.581"/>
<polygon fill="#000000" stroke="#000000" points="323.5001,-252.581 327,-262.581 330.5001,-252.5811 323.5001,-252.581"/>
</g>
<!-- UitListBoxItem -->
<g id="node4" class="node">
<title>UitListBoxItem</title>
<polygon fill="#ffffb3" stroke="#000000" points="226.1598,-233.5901 121.8402,-233.5901 121.8402,-197.5901 226.1598,-197.5901 226.1598,-233.5901"/>
<text text-anchor="middle" x="174" y="-211.3901" font-family="Times,serif" font-size="14.00" fill="#000000">UitListBoxItem</text>
</g>
<!-- UitListBoxItem&#45;&gt;UitListModule -->
<g id="edge4" class="edge">
<title>UitListBoxItem&#45;&gt;UitListModule</title>
<path fill="none" stroke="#000000" d="M199.5391,-233.6171C199.5391,-249.9877 199.5391,-271.5901 199.5391,-271.5901 199.5391,-271.5901 267.3553,-271.5901 267.3553,-271.5901"/>
<polygon fill="#000000" stroke="#000000" points="267.3553,-275.0902 277.3553,-271.5901 267.3553,-268.0902 267.3553,-275.0902"/>
</g>
<!-- UitListBox -->
<g id="node5" class="node">
<title>UitListBox</title>
<polygon fill="#ffffb3" stroke="#000000" points="103.5028,-233.5901 24.4972,-233.5901 24.4972,-197.5901 103.5028,-197.5901 103.5028,-233.5901"/>
<text text-anchor="middle" x="64" y="-211.3901" font-family="Times,serif" font-size="14.00" fill="#000000">UitListBox</text>
</g>
<!-- UitListBox&#45;&gt;UitListModule -->
<g id="edge7" class="edge">
<title>UitListBox&#45;&gt;UitListModule</title>
<path fill="none" stroke="#000000" d="M64,-233.6962C64,-252.9292 64,-280.5901 64,-280.5901 64,-280.5901 267.2225,-280.5901 267.2225,-280.5901"/>
<polygon fill="#000000" stroke="#000000" points="267.2226,-284.0902 277.2225,-280.5901 267.2225,-277.0902 267.2226,-284.0902"/>
</g>
<!-- UitItemTemplateDirective  -->
<g id="node8" class="node">
<title>UitItemTemplateDirective </title>
<polygon fill="#fb8072" stroke="#000000" points="566.9952,-363.5901 399.0048,-363.5901 399.0048,-327.5901 566.9952,-327.5901 566.9952,-363.5901"/>
<text text-anchor="middle" x="483" y="-341.3901" font-family="Times,serif" font-size="14.00" fill="#000000">UitItemTemplateDirective </text>
</g>
<!-- UitListModule&#45;&gt;UitItemTemplateDirective  -->
<g id="edge9" class="edge">
<title>UitListModule&#45;&gt;UitItemTemplateDirective </title>
<path fill="none" stroke="#000000" stroke-dasharray="5,2" d="M376.7165,-289.5901C391.64,-289.5901 404.125,-289.5901 404.125,-289.5901 404.125,-289.5901 404.125,-317.5631 404.125,-317.5631"/>
<polygon fill="#000000" stroke="#000000" points="400.6251,-317.563 404.125,-327.5631 407.6251,-317.5631 400.6251,-317.563"/>
</g>
<!-- UitListBoxItem  -->
<g id="node9" class="node">
<title>UitListBoxItem </title>
<polygon fill="#fb8072" stroke="#000000" points="381.1593,-363.5901 272.8407,-363.5901 272.8407,-327.5901 381.1593,-327.5901 381.1593,-363.5901"/>
<text text-anchor="middle" x="327" y="-341.3901" font-family="Times,serif" font-size="14.00" fill="#000000">UitListBoxItem </text>
</g>
<!-- UitListModule&#45;&gt;UitListBoxItem  -->
<g id="edge10" class="edge">
<title>UitListModule&#45;&gt;UitListBoxItem </title>
<path fill="none" stroke="#000000" stroke-dasharray="5,2" d="M327,-298.6962C327,-298.6962 327,-317.581 327,-317.581"/>
<polygon fill="#000000" stroke="#000000" points="323.5001,-317.581 327,-327.581 330.5001,-317.5811 323.5001,-317.581"/>
</g>
<!-- UitListBox  -->
<g id="node10" class="node">
<title>UitListBox </title>
<polygon fill="#fb8072" stroke="#000000" points="255.0043,-363.5901 172.9957,-363.5901 172.9957,-327.5901 255.0043,-327.5901 255.0043,-363.5901"/>
<text text-anchor="middle" x="214" y="-341.3901" font-family="Times,serif" font-size="14.00" fill="#000000">UitListBox </text>
</g>
<!-- UitListModule&#45;&gt;UitListBox  -->
<g id="edge11" class="edge">
<title>UitListModule&#45;&gt;UitListBox </title>
<path fill="none" stroke="#000000" stroke-dasharray="5,2" d="M277.3654,-289.5901C262.4664,-289.5901 250.0019,-289.5901 250.0019,-289.5901 250.0019,-289.5901 250.0019,-317.5631 250.0019,-317.5631"/>
<polygon fill="#000000" stroke="#000000" points="246.502,-317.563 250.0019,-327.5631 253.502,-317.5631 246.502,-317.563"/>
</g>
<!-- {
 &#160;&#160;&#160;: , : (() =&gt; ), : true
} -->
<g id="node7" class="node">
<title>{
 &#160;&#160;&#160;: , : (() =&gt; ), : true
}</title>
<ellipse fill="#fdb462" stroke="#000000" cx="174" cy="-127.295" rx="91.4557" ry="41.0911"/>
<text text-anchor="middle" x="174" y="-139.895" font-family="Times,serif" font-size="14.00" fill="#000000">{</text>
<text text-anchor="middle" x="174" y="-123.095" font-family="Times,serif" font-size="14.00" fill="#000000"> &#160;&#160;&#160;: , : (() =&gt; ), : true</text>
<text text-anchor="middle" x="174" y="-106.295" font-family="Times,serif" font-size="14.00" fill="#000000">}</text>
</g>
<!-- {
 &#160;&#160;&#160;: , : (() =&gt; ), : true
}&#45;&gt;UitListBoxItem -->
<g id="edge5" class="edge">
<title>{
 &#160;&#160;&#160;: , : (() =&gt; ), : true
}&#45;&gt;UitListBoxItem</title>
<path fill="none" stroke="#000000" d="M156.5568,-168.0826C156.5568,-168.0826 156.5568,-187.4641 156.5568,-187.4641"/>
<polygon fill="#000000" stroke="#000000" points="153.0569,-187.4641 156.5568,-197.4641 160.0569,-187.4642 153.0569,-187.4641"/>
</g>
<!-- {
 &#160;&#160;&#160;: , : (() =&gt; ), : true
}&#45;&gt;UitListBoxItem -->
<g id="edge6" class="edge">
<title>{
 &#160;&#160;&#160;: , : (() =&gt; ), : true
}&#45;&gt;UitListBoxItem</title>
<path fill="none" stroke="#000000" d="M191.4432,-168.0826C191.4432,-168.0826 191.4432,-187.4641 191.4432,-187.4641"/>
<polygon fill="#000000" stroke="#000000" points="187.9433,-187.4641 191.4432,-197.4641 194.9433,-187.4642 187.9433,-187.4641"/>
</g>
<!-- {
 &#160;&#160;&#160;: , : (() =&gt; ), : true
}&#45;&gt;UitListBox -->
<g id="edge8" class="edge">
<title>{
 &#160;&#160;&#160;: , : (() =&gt; ), : true
}&#45;&gt;UitListBox</title>
<path fill="none" stroke="#000000" d="M93.0118,-146.8906C93.0118,-146.8906 93.0118,-187.5525 93.0118,-187.5525"/>
<polygon fill="#000000" stroke="#000000" points="89.5119,-187.5525 93.0118,-197.5525 96.5119,-187.5526 89.5119,-187.5525"/>
</g>
</g>
</svg>
